<svg width="199" height="28" viewBox="0 0 199 28" fill="none" xmlns="http://www.w3.org/2000/svg">
<path d="M9.15234 4.9375V22H5.64844V4.9375H9.15234ZM14.4023 4.9375V7.69141H0.480469V4.9375H14.4023ZM30.0938 13.0703V13.8789C30.0938 15.1758 29.918 16.3398 29.5664 17.3711C29.2148 18.4023 28.7188 19.2812 28.0781 20.0078C27.4375 20.7266 26.6719 21.2773 25.7812 21.6602C24.8984 22.043 23.918 22.2344 22.8398 22.2344C21.7695 22.2344 20.7891 22.043 19.8984 21.6602C19.0156 21.2773 18.25 20.7266 17.6016 20.0078C16.9531 19.2812 16.4492 18.4023 16.0898 17.3711C15.7383 16.3398 15.5625 15.1758 15.5625 13.8789V13.0703C15.5625 11.7656 15.7383 10.6016 16.0898 9.57812C16.4414 8.54688 16.9375 7.66797 17.5781 6.94141C18.2266 6.21484 18.9922 5.66016 19.875 5.27734C20.7656 4.89453 21.7461 4.70312 22.8164 4.70312C23.8945 4.70312 24.875 4.89453 25.7578 5.27734C26.6484 5.66016 27.4141 6.21484 28.0547 6.94141C28.7031 7.66797 29.2031 8.54688 29.5547 9.57812C29.9141 10.6016 30.0938 11.7656 30.0938 13.0703ZM26.543 13.8789V13.0469C26.543 12.1406 26.4609 11.3438 26.2969 10.6562C26.1328 9.96875 25.8906 9.39062 25.5703 8.92188C25.25 8.45312 24.8594 8.10156 24.3984 7.86719C23.9375 7.625 23.4102 7.50391 22.8164 7.50391C22.2227 7.50391 21.6953 7.625 21.2344 7.86719C20.7812 8.10156 20.3945 8.45312 20.0742 8.92188C19.7617 9.39062 19.5234 9.96875 19.3594 10.6562C19.1953 11.3438 19.1133 12.1406 19.1133 13.0469V13.8789C19.1133 14.7773 19.1953 15.5742 19.3594 16.2695C19.5234 16.957 19.7656 17.5391 20.0859 18.0156C20.4062 18.4844 20.7969 18.8398 21.2578 19.082C21.7188 19.3242 22.2461 19.4453 22.8398 19.4453C23.4336 19.4453 23.9609 19.3242 24.4219 19.082C24.8828 18.8398 25.2695 18.4844 25.582 18.0156C25.8945 17.5391 26.1328 16.957 26.2969 16.2695C26.4609 15.5742 26.543 14.7773 26.543 13.8789ZM44.0742 19.2578V22H34.9922V19.2578H44.0742ZM36.1406 4.9375V22H32.625V4.9375H36.1406ZM42.8906 11.8867V14.5586H34.9922V11.8867H42.8906ZM44.0625 4.9375V7.69141H34.9922V4.9375H44.0625ZM49.8633 4.9375V22H46.3594V4.9375H49.8633ZM63.0469 16.3398H66.5508C66.4805 17.4883 66.1641 18.5078 65.6016 19.3984C65.0469 20.2891 64.2695 20.9844 63.2695 21.4844C62.2773 21.9844 61.082 22.2344 59.6836 22.2344C58.5898 22.2344 57.6094 22.0469 56.7422 21.6719C55.875 21.2891 55.1328 20.7422 54.5156 20.0312C53.9062 19.3203 53.4414 18.4609 53.1211 17.4531C52.8008 16.4453 52.6406 15.3164 52.6406 14.0664V12.8828C52.6406 11.6328 52.8047 10.5039 53.1328 9.49609C53.4688 8.48047 53.9453 7.61719 54.5625 6.90625C55.1875 6.19531 55.9336 5.64844 56.8008 5.26562C57.668 4.88281 58.6367 4.69141 59.707 4.69141C61.1289 4.69141 62.3281 4.94922 63.3047 5.46484C64.2891 5.98047 65.0508 6.69141 65.5898 7.59766C66.1367 8.50391 66.4648 9.53516 66.5742 10.6914H63.0586C63.0195 10.0039 62.8828 9.42188 62.6484 8.94531C62.4141 8.46094 62.0586 8.09766 61.582 7.85547C61.1133 7.60547 60.4883 7.48047 59.707 7.48047C59.1211 7.48047 58.6094 7.58984 58.1719 7.80859C57.7344 8.02734 57.3672 8.35938 57.0703 8.80469C56.7734 9.25 56.5508 9.8125 56.4023 10.4922C56.2617 11.1641 56.1914 11.9531 56.1914 12.8594V14.0664C56.1914 14.9492 56.2578 15.7266 56.3906 16.3984C56.5234 17.0625 56.7266 17.625 57 18.0859C57.2812 18.5391 57.6406 18.8828 58.0781 19.1172C58.5234 19.3438 59.0586 19.457 59.6836 19.457C60.418 19.457 61.0234 19.3398 61.5 19.1055C61.9766 18.8711 62.3398 18.5234 62.5898 18.0625C62.8477 17.6016 63 17.0273 63.0469 16.3398Z" fill="white"/>
<path d="M80 14L71.048 9.53L71.6 26H69.2L69.776 8.885L68 8L80 2L92 8L80 14ZM80 6.5C79.34 6.5 78.8 6.83 78.8 7.25C78.8 7.67 79.34 8 80 8C80.66 8 81.2 7.67 81.2 7.25C81.2 6.83 80.66 6.5 80 6.5ZM80 15.5L86.684 12.155C87.536 13.565 88.124 15.26 88.316 17.105C87.956 17.045 87.584 17 87.2 17C84.14 17 81.464 19.055 80 22.115C79.2565 20.5565 78.2023 19.2659 76.9402 18.3693C75.6782 17.4728 74.2516 17.001 72.8 17C72.416 17 72.044 17.045 71.684 17.105C71.876 15.26 72.464 13.565 73.316 12.155L80 15.5Z" fill="white"/>
<path d="M100.203 14.5117H95.8203L95.7969 12.0977H99.4766C100.125 12.0977 100.656 12.0156 101.07 11.8516C101.484 11.6797 101.793 11.4336 101.996 11.1133C102.207 10.7852 102.312 10.3867 102.312 9.91797C102.312 9.38672 102.211 8.95703 102.008 8.62891C101.812 8.30078 101.504 8.0625 101.082 7.91406C100.668 7.76562 100.133 7.69141 99.4766 7.69141H97.0391V22H93.5234V4.9375H99.4766C100.469 4.9375 101.355 5.03125 102.137 5.21875C102.926 5.40625 103.594 5.69141 104.141 6.07422C104.688 6.45703 105.105 6.94141 105.395 7.52734C105.684 8.10547 105.828 8.79297 105.828 9.58984C105.828 10.293 105.668 10.9414 105.348 11.5352C105.035 12.1289 104.539 12.6133 103.859 12.9883C103.188 13.3633 102.309 13.5703 101.223 13.6094L100.203 14.5117ZM100.051 22H94.8594L96.2305 19.2578H100.051C100.668 19.2578 101.172 19.1602 101.562 18.9648C101.953 18.7617 102.242 18.4883 102.43 18.1445C102.617 17.8008 102.711 17.4062 102.711 16.9609C102.711 16.4609 102.625 16.0273 102.453 15.6602C102.289 15.293 102.023 15.0117 101.656 14.8164C101.289 14.6133 100.805 14.5117 100.203 14.5117H96.8164L96.8398 12.0977H101.059L101.867 13.0469C102.906 13.0312 103.742 13.2148 104.375 13.5977C105.016 13.9727 105.48 14.4609 105.77 15.0625C106.066 15.6641 106.215 16.3086 106.215 16.9961C106.215 18.0898 105.977 19.0117 105.5 19.7617C105.023 20.5039 104.324 21.0625 103.402 21.4375C102.488 21.8125 101.371 22 100.051 22ZM122.867 13.0703V13.8789C122.867 15.1758 122.691 16.3398 122.34 17.3711C121.988 18.4023 121.492 19.2812 120.852 20.0078C120.211 20.7266 119.445 21.2773 118.555 21.6602C117.672 22.043 116.691 22.2344 115.613 22.2344C114.543 22.2344 113.562 22.043 112.672 21.6602C111.789 21.2773 111.023 20.7266 110.375 20.0078C109.727 19.2812 109.223 18.4023 108.863 17.3711C108.512 16.3398 108.336 15.1758 108.336 13.8789V13.0703C108.336 11.7656 108.512 10.6016 108.863 9.57812C109.215 8.54688 109.711 7.66797 110.352 6.94141C111 6.21484 111.766 5.66016 112.648 5.27734C113.539 4.89453 114.52 4.70312 115.59 4.70312C116.668 4.70312 117.648 4.89453 118.531 5.27734C119.422 5.66016 120.188 6.21484 120.828 6.94141C121.477 7.66797 121.977 8.54688 122.328 9.57812C122.688 10.6016 122.867 11.7656 122.867 13.0703ZM119.316 13.8789V13.0469C119.316 12.1406 119.234 11.3438 119.07 10.6562C118.906 9.96875 118.664 9.39062 118.344 8.92188C118.023 8.45312 117.633 8.10156 117.172 7.86719C116.711 7.625 116.184 7.50391 115.59 7.50391C114.996 7.50391 114.469 7.625 114.008 7.86719C113.555 8.10156 113.168 8.45312 112.848 8.92188C112.535 9.39062 112.297 9.96875 112.133 10.6562C111.969 11.3438 111.887 12.1406 111.887 13.0469V13.8789C111.887 14.7773 111.969 15.5742 112.133 16.2695C112.297 16.957 112.539 17.5391 112.859 18.0156C113.18 18.4844 113.57 18.8398 114.031 19.082C114.492 19.3242 115.02 19.4453 115.613 19.4453C116.207 19.4453 116.734 19.3242 117.195 19.082C117.656 18.8398 118.043 18.4844 118.355 18.0156C118.668 17.5391 118.906 16.957 119.07 16.2695C119.234 15.5742 119.316 14.7773 119.316 13.8789ZM139.414 13.0703V13.8789C139.414 15.1758 139.238 16.3398 138.887 17.3711C138.535 18.4023 138.039 19.2812 137.398 20.0078C136.758 20.7266 135.992 21.2773 135.102 21.6602C134.219 22.043 133.238 22.2344 132.16 22.2344C131.09 22.2344 130.109 22.043 129.219 21.6602C128.336 21.2773 127.57 20.7266 126.922 20.0078C126.273 19.2812 125.77 18.4023 125.41 17.3711C125.059 16.3398 124.883 15.1758 124.883 13.8789V13.0703C124.883 11.7656 125.059 10.6016 125.41 9.57812C125.762 8.54688 126.258 7.66797 126.898 6.94141C127.547 6.21484 128.312 5.66016 129.195 5.27734C130.086 4.89453 131.066 4.70312 132.137 4.70312C133.215 4.70312 134.195 4.89453 135.078 5.27734C135.969 5.66016 136.734 6.21484 137.375 6.94141C138.023 7.66797 138.523 8.54688 138.875 9.57812C139.234 10.6016 139.414 11.7656 139.414 13.0703ZM135.863 13.8789V13.0469C135.863 12.1406 135.781 11.3438 135.617 10.6562C135.453 9.96875 135.211 9.39062 134.891 8.92188C134.57 8.45312 134.18 8.10156 133.719 7.86719C133.258 7.625 132.73 7.50391 132.137 7.50391C131.543 7.50391 131.016 7.625 130.555 7.86719C130.102 8.10156 129.715 8.45312 129.395 8.92188C129.082 9.39062 128.844 9.96875 128.68 10.6562C128.516 11.3438 128.434 12.1406 128.434 13.0469V13.8789C128.434 14.7773 128.516 15.5742 128.68 16.2695C128.844 16.957 129.086 17.5391 129.406 18.0156C129.727 18.4844 130.117 18.8398 130.578 19.082C131.039 19.3242 131.566 19.4453 132.16 19.4453C132.754 19.4453 133.281 19.3242 133.742 19.082C134.203 18.8398 134.59 18.4844 134.902 18.0156C135.215 17.5391 135.453 16.957 135.617 16.2695C135.781 15.5742 135.863 14.7773 135.863 13.8789ZM150.828 17.5352C150.828 17.2305 150.781 16.957 150.688 16.7148C150.602 16.4648 150.438 16.2383 150.195 16.0352C149.953 15.8242 149.613 15.6172 149.176 15.4141C148.738 15.2109 148.172 15 147.477 14.7812C146.703 14.5312 145.969 14.25 145.273 13.9375C144.586 13.625 143.977 13.2617 143.445 12.8477C142.922 12.4258 142.508 11.9375 142.203 11.3828C141.906 10.8281 141.758 10.1836 141.758 9.44922C141.758 8.73828 141.914 8.09375 142.227 7.51562C142.539 6.92969 142.977 6.42969 143.539 6.01562C144.102 5.59375 144.766 5.26953 145.531 5.04297C146.305 4.81641 147.152 4.70312 148.074 4.70312C149.332 4.70312 150.43 4.92969 151.367 5.38281C152.305 5.83594 153.031 6.45703 153.547 7.24609C154.07 8.03516 154.332 8.9375 154.332 9.95312H150.84C150.84 9.45312 150.734 9.01562 150.523 8.64062C150.32 8.25781 150.008 7.95703 149.586 7.73828C149.172 7.51953 148.648 7.41016 148.016 7.41016C147.406 7.41016 146.898 7.50391 146.492 7.69141C146.086 7.87109 145.781 8.11719 145.578 8.42969C145.375 8.73438 145.273 9.07812 145.273 9.46094C145.273 9.75 145.344 10.0117 145.484 10.2461C145.633 10.4805 145.852 10.6992 146.141 10.9023C146.43 11.1055 146.785 11.2969 147.207 11.4766C147.629 11.6562 148.117 11.832 148.672 12.0039C149.602 12.2852 150.418 12.6016 151.121 12.9531C151.832 13.3047 152.426 13.6992 152.902 14.1367C153.379 14.5742 153.738 15.0703 153.98 15.625C154.223 16.1797 154.344 16.8086 154.344 17.5117C154.344 18.2539 154.199 18.918 153.91 19.5039C153.621 20.0898 153.203 20.5859 152.656 20.9922C152.109 21.3984 151.457 21.707 150.699 21.918C149.941 22.1289 149.094 22.2344 148.156 22.2344C147.312 22.2344 146.48 22.125 145.66 21.9062C144.84 21.6797 144.094 21.3398 143.422 20.8867C142.758 20.4336 142.227 19.8555 141.828 19.1523C141.43 18.4492 141.23 17.6172 141.23 16.6562H144.758C144.758 17.1875 144.84 17.6367 145.004 18.0039C145.168 18.3711 145.398 18.668 145.695 18.8945C146 19.1211 146.359 19.2852 146.773 19.3867C147.195 19.4883 147.656 19.5391 148.156 19.5391C148.766 19.5391 149.266 19.4531 149.656 19.2812C150.055 19.1094 150.348 18.8711 150.535 18.5664C150.73 18.2617 150.828 17.918 150.828 17.5352ZM164.363 4.9375V22H160.859V4.9375H164.363ZM169.613 4.9375V7.69141H155.691V4.9375H169.613ZM183.066 19.2578V22H173.984V19.2578H183.066ZM175.133 4.9375V22H171.617V4.9375H175.133ZM181.883 11.8867V14.5586H173.984V11.8867H181.883ZM183.055 4.9375V7.69141H173.984V4.9375H183.055ZM185.117 4.9375H191.48C192.785 4.9375 193.906 5.13281 194.844 5.52344C195.789 5.91406 196.516 6.49219 197.023 7.25781C197.531 8.02344 197.785 8.96484 197.785 10.082C197.785 10.9961 197.629 11.7812 197.316 12.4375C197.012 13.0859 196.578 13.6289 196.016 14.0664C195.461 14.4961 194.809 14.8398 194.059 15.0977L192.945 15.6836H187.414L187.391 12.9414H191.504C192.121 12.9414 192.633 12.832 193.039 12.6133C193.445 12.3945 193.75 12.0898 193.953 11.6992C194.164 11.3086 194.27 10.8555 194.27 10.3398C194.27 9.79297 194.168 9.32031 193.965 8.92188C193.762 8.52344 193.453 8.21875 193.039 8.00781C192.625 7.79688 192.105 7.69141 191.48 7.69141H188.633V22H185.117V4.9375ZM194.656 22L190.766 14.3945L194.48 14.3711L198.418 21.8359V22H194.656Z" fill="white"/>
</svg>
