<svg xmlns="http://www.w3.org/2000/svg" x="0px" y="4670px" width="47.125px" height="61.5px" viewBox="0 0 47.125 61.5" enable-background="new 0 0 47.125 61.5" xml:space="preserve">
	<path fill="#777777" d="M46.848,20.443c-0.41-0.771-1.207-1.249-2.08-1.249h-6.699c-0.56-3.146-3.312-5.542-6.615-5.542   c-3.303,0-6.056,2.396-6.615,5.542h-6.786c0.532-0.815,0.843-1.787,0.843-2.83c0-2.861-2.328-5.188-5.188-5.188   c-2.861,0-5.188,2.327-5.188,5.188c0,1.043,0.311,2.015,0.843,2.83H3.829c-0.874,0-1.671,0.478-2.082,1.249   c-0.41,0.771-0.362,1.7,0.125,2.425l15.823,23.528v13.357c0,0.398,0.2,0.77,0.533,0.986c0.195,0.128,0.42,0.193,0.646,0.193   c0.16,0,0.32-0.033,0.471-0.099l10.847-4.724C30.622,55.924,30.9,55.5,30.9,55.03v-8.634l15.822-23.528   C47.211,22.143,47.258,21.214,46.848,20.443z M31.453,16.01c1.997,0,3.684,1.349,4.199,3.184h-8.398   C27.77,17.359,29.456,16.01,31.453,16.01z M13.707,13.534c1.56,0,2.83,1.269,2.83,2.83c0,1.56-1.27,2.83-2.83,2.83   s-2.83-1.27-2.83-2.83C10.877,14.803,12.147,13.534,13.707,13.534z M28.743,45.379c-0.132,0.195-0.201,0.424-0.201,0.658v8.221   l-8.489,3.697V47.216h4.26c0.651,0,1.179-0.526,1.179-1.179c0-0.651-0.528-1.18-1.179-1.18h-4.811L7.635,27.211h23.818   c0.65,0,1.179-0.528,1.179-1.179c0-0.651-0.528-1.179-1.179-1.179H6.049l-2.22-3.301h40.937L28.743,45.379z"/>
	<path fill="#777777" d="M28.322,0.564c-2.861,0-5.188,2.328-5.188,5.188c0,2.861,2.327,5.188,5.188,5.188   c2.859,0,5.188-2.327,5.188-5.188C33.51,2.892,31.182,0.564,28.322,0.564z M28.322,8.582c-1.562,0-2.83-1.269-2.83-2.83   c0-1.56,1.269-2.829,2.83-2.829c1.56,0,2.828,1.269,2.828,2.829C31.15,7.313,29.882,8.582,28.322,8.582z"/>
	<path fill="#777777" d="M40.923,6.265c-0.651,0-1.179,0.527-1.179,1.179v6.701c0,0.651,0.527,1.179,1.179,1.179   s1.179-0.528,1.179-1.179V7.444C42.102,6.792,41.574,6.265,40.923,6.265z"/>
	<path fill="#777777" d="M41.756,2.738c-0.219-0.219-0.523-0.345-0.833-0.345s-0.614,0.126-0.834,0.345   c-0.219,0.219-0.345,0.523-0.345,0.834c0,0.31,0.126,0.614,0.345,0.833c0.22,0.22,0.524,0.346,0.834,0.346s0.614-0.126,0.833-0.346   c0.221-0.219,0.346-0.523,0.346-0.833C42.102,3.262,41.977,2.957,41.756,2.738z"/>
	<path fill="#777777" d="M17.716,2.068c-0.651,0-1.179,0.527-1.179,1.179v4.834c0,0.651,0.528,1.179,1.179,1.179   c0.651,0,1.179-0.528,1.179-1.179V3.247C18.895,2.595,18.367,2.068,17.716,2.068z"/>
	<path fill="#777777" d="M1.659,0.564c-0.651,0-1.179,0.528-1.179,1.18v7.683c0,0.652,0.528,1.18,1.179,1.18   c0.651,0,1.179-0.528,1.179-1.18V1.744C2.838,1.092,2.31,0.564,1.659,0.564z"/>
	<path fill="#777777" d="M2.493,13.015c-0.22-0.22-0.524-0.345-0.834-0.345c-0.31,0-0.614,0.125-0.833,0.345   c-0.22,0.22-0.346,0.523-0.346,0.834c0,0.31,0.126,0.614,0.346,0.834c0.219,0.219,0.523,0.345,0.833,0.345   c0.31,0,0.614-0.126,0.834-0.345c0.219-0.22,0.345-0.524,0.345-0.834C2.838,13.538,2.712,13.235,2.493,13.015z"/>
	<path fill="#777777" d="M37.529,25.199c-0.219-0.219-0.523-0.345-0.834-0.345s-0.615,0.126-0.834,0.345   c-0.219,0.219-0.344,0.524-0.344,0.834c0,0.31,0.125,0.614,0.344,0.833c0.22,0.22,0.523,0.346,0.834,0.346s0.613-0.126,0.834-0.346   c0.22-0.219,0.346-0.523,0.346-0.833C37.875,25.723,37.749,25.418,37.529,25.199z"/>
	</svg>