<svg xmlns="http://www.w3.org/2000/svg" x="0px" y="4740px" width="42.925px" height="63.553px" viewBox="0 0 42.925 63.553" enable-background="new 0 0 42.925 63.553" xml:space="preserve">
	<path fill="#777777" d="M39.119,0H11.066c-0.514,0-0.931,0.416-0.931,0.931c0,0.514,0.417,0.931,0.931,0.931h28.053   c1.072,0,1.943,0.871,1.943,1.943v44.069H4.601c-1.025,0-1.973,0.337-2.739,0.907V3.805c0-1.072,0.871-1.943,1.943-1.943h3.539   c0.515,0,0.931-0.417,0.931-0.931C8.275,0.416,7.859,0,7.344,0H3.805C1.707,0,0,1.707,0,3.805v52.666   c0,2.536,2.064,4.602,4.601,4.602h15.266v0.873c0,0.508,0.244,0.991,0.652,1.293c0.404,0.299,0.938,0.395,1.427,0.245l2.362-0.722   l2.362,0.722c0.486,0.148,1.02,0.057,1.428-0.245s0.652-0.785,0.652-1.293v-0.873h2.81c0.515,0,0.931-0.417,0.931-0.931   c0-0.516-0.416-0.932-0.931-0.932h-2.81v-2.013h7.621c0.514,0,0.931-0.416,0.931-0.931s-0.417-0.932-0.931-0.932H6.553   c-0.514,0-0.931,0.417-0.931,0.932s0.417,0.931,0.931,0.931h13.314v2.013H4.601c-1.51,0-2.739-1.229-2.739-2.739v-3.995   c0-1.511,1.229-2.739,2.739-2.739h36.462v7.531c0,1.07-0.871,1.942-1.943,1.942h-3.836c-0.515,0-0.932,0.416-0.932,0.932   c0,0.514,0.417,0.931,0.932,0.931h3.836c2.099,0,3.806-1.707,3.806-3.805V3.805C42.925,1.707,41.218,0,39.119,0z M26.888,57.197   v4.406l-2.108-0.646c-0.153-0.047-0.313-0.07-0.472-0.07c-0.157,0-0.315,0.023-0.47,0.07l-2.109,0.646v-4.406H26.888z"/>
	<path fill="#777777" d="M6.553,51.749c-0.514,0-0.931,0.417-0.931,0.932c0,0.514,0.417,0.931,0.931,0.931h29.818   c0.514,0,0.931-0.417,0.931-0.931c0-0.515-0.417-0.932-0.931-0.932H6.553z"/>
	<path fill="#777777" d="M16.244,6.676l-0.01-0.026c-0.202-0.492-0.676-0.809-1.208-0.809h-0.001c-0.533,0-1.007,0.319-1.208,0.812   l-0.008,0.021l-6.224,16.34c-0.183,0.48,0.058,1.018,0.539,1.201c0.48,0.183,1.018-0.058,1.201-0.539l1.322-3.469h8.714l1.308,3.467   c0.182,0.482,0.72,0.723,1.2,0.542c0.481-0.181,0.724-0.718,0.542-1.2L16.244,6.676z M11.356,18.345l3.668-9.631l3.634,9.631H11.356   z"/>
	<path fill="#777777" d="M24.433,18.302c0,3.024,2.46,5.484,5.484,5.484c1.387,0,2.655-0.519,3.621-1.372v1.046   c0,0.514,0.417,0.931,0.931,0.931c0.516,0,0.932-0.417,0.932-0.931V13.144c0-0.514-0.416-0.931-0.932-0.931   c-0.514,0-0.931,0.417-0.931,0.931v1.046c-0.966-0.853-2.234-1.371-3.621-1.371C26.893,12.818,24.433,15.278,24.433,18.302z    M33.538,18.302c0,1.997-1.624,3.622-3.621,3.622s-3.622-1.625-3.622-3.622s1.625-3.622,3.622-3.622S33.538,16.305,33.538,18.302z"/>
	<path fill="#777777" d="M28.941,38.32H13.982c-0.514,0-0.931,0.417-0.931,0.931c0,0.515,0.417,0.932,0.931,0.932h14.959   c0.516,0,0.932-0.417,0.932-0.932C29.873,38.737,29.457,38.32,28.941,38.32z"/>
	<path fill="#777777" d="M28.941,42.529H13.982c-0.514,0-0.931,0.416-0.931,0.931s0.417,0.932,0.931,0.932h14.959   c0.516,0,0.932-0.417,0.932-0.932S29.457,42.529,28.941,42.529z"/>
	<path fill="#777777" d="M35.623,5.919c0.515,0,0.931-0.417,0.931-0.931s-0.416-0.931-0.931-0.931H31.98   c-0.514,0-0.931,0.417-0.931,0.931s0.417,0.931,0.931,0.931H35.623z"/>
	<path fill="#777777" d="M21.728,29.041c0,0.514,0.417,0.931,0.931,0.931h7.734c0.062,0,0.11,0.049,0.11,0.11v3.741   c0,0.062-0.049,0.11-0.11,0.11H12.531c-0.06,0-0.11-0.049-0.11-0.11v-3.741c0-0.061,0.049-0.11,0.11-0.11h6.406   c0.514,0,0.931-0.417,0.931-0.931c0-0.514-0.417-0.931-0.931-0.931h-6.406c-1.087,0-1.972,0.885-1.972,1.972v3.741   c0,1.087,0.885,1.972,1.972,1.972h17.862c1.088,0,1.973-0.885,1.973-1.972v-3.741c0-1.087-0.885-1.972-1.973-1.972h-7.734   C22.145,28.11,21.728,28.527,21.728,29.041z"/>
	</svg>